<svg width="153" height="149" viewBox="0 0 153 149" fill="none" xmlns="http://www.w3.org/2000/svg">
<path d="M43.1282 119.927C43.6088 120.282 43.9974 120.69 44.294 121.153C44.5906 121.615 44.7699 122.119 44.8319 122.664L44.1175 122.972C44.0143 122.42 43.8502 121.951 43.6251 121.564C43.387 121.179 43.0802 120.849 42.7047 120.571C42.2467 120.233 41.8085 120.049 41.3901 120.019C40.9662 119.996 40.6267 120.157 40.3717 120.502C40.1999 120.735 40.141 120.964 40.195 121.19C40.2359 121.417 40.3601 121.665 40.5675 121.935C40.7618 122.206 41.0059 122.519 41.2999 122.875C41.6222 123.287 41.878 123.656 42.0671 123.981C42.2432 124.308 42.3333 124.619 42.3374 124.912C42.3285 125.207 42.2104 125.508 41.9831 125.816C41.7004 126.199 41.3738 126.445 41.0031 126.554C40.6194 126.665 40.2152 126.663 39.7906 126.547C39.3529 126.432 38.9276 126.223 38.5146 125.918C38.064 125.585 37.7187 125.22 37.4786 124.823C37.2385 124.425 37.1038 124.018 37.0745 123.602L37.8286 123.358C37.8615 123.754 37.9828 124.116 38.1925 124.445C38.3892 124.776 38.664 125.071 39.0169 125.332C39.2572 125.509 39.5112 125.644 39.7788 125.738C40.041 125.838 40.2988 125.866 40.5523 125.821C40.7928 125.778 41.0073 125.629 41.1957 125.374C41.3509 125.164 41.4203 124.96 41.4039 124.762C41.3819 124.572 41.2962 124.358 41.1469 124.12C40.9921 123.89 40.794 123.616 40.5527 123.298C40.1983 122.851 39.903 122.442 39.6669 122.07C39.4252 121.706 39.2862 121.36 39.2501 121.032C39.214 120.704 39.3262 120.363 39.5868 120.01C39.9914 119.462 40.5138 119.186 41.1541 119.183C41.7944 119.18 42.4524 119.428 43.1282 119.927Z" fill="black"/>
<path d="M37.1411 114.571C37.5202 114.944 37.8006 115.357 37.9823 115.811C38.1508 116.266 38.2303 116.737 38.2209 117.225C38.2048 117.707 38.1028 118.177 37.915 118.633C37.7204 119.084 37.4431 119.492 37.0829 119.857C36.5983 120.35 36.0466 120.69 35.4277 120.88C34.8087 121.07 34.1852 121.091 33.5571 120.944C32.929 120.797 32.3589 120.471 31.8468 119.967C31.3613 119.489 31.0437 118.954 30.8939 118.361C30.7376 117.775 30.7563 117.204 30.95 116.648L31.8146 117.087C31.699 117.497 31.7022 117.906 31.8241 118.314C31.9329 118.722 32.1469 119.084 32.4661 119.398C32.8119 119.739 33.2162 119.96 33.679 120.062C34.1418 120.164 34.6135 120.144 35.0942 120.002C35.5682 119.853 36.0017 119.579 36.3946 119.18C36.781 118.787 37.0449 118.346 37.1863 117.857C37.3277 117.367 37.3504 116.885 37.2543 116.411C37.1517 115.943 36.9275 115.539 36.5817 115.199C36.3555 114.976 36.1001 114.803 35.8154 114.68C35.524 114.55 35.2363 114.476 34.9524 114.459C34.6553 114.441 34.4015 114.486 34.1911 114.593L33.7192 113.736C34.0546 113.581 34.4303 113.512 34.8462 113.529C35.2489 113.546 35.6523 113.642 36.0562 113.817C36.4469 113.992 36.8086 114.243 37.1411 114.571Z" fill="black"/>
<path d="M26.5267 112.105C26.9319 112.594 27.4162 112.927 27.9797 113.102C28.5374 113.271 29.1083 113.252 29.6925 113.044L33.2685 110.254L33.8542 111.004L28.1039 115.492L27.5527 114.785L28.9323 113.709C28.3726 113.826 27.8413 113.82 27.3385 113.692C26.8299 113.556 26.4173 113.315 26.1008 112.97C26.036 112.903 25.9835 112.843 25.9433 112.791C25.8974 112.733 25.8638 112.682 25.8424 112.639L26.5267 112.105Z" fill="black"/>
<path d="M28.9206 103.398C29.1832 103.85 29.3424 104.319 29.3981 104.805C29.441 105.287 29.3953 105.756 29.2609 106.212C29.1138 106.665 28.8911 107.08 28.5929 107.459C28.2866 107.842 27.9156 108.16 27.4799 108.413C27.028 108.676 26.5638 108.843 26.0874 108.915C25.6029 108.992 25.1293 108.976 24.6666 108.867C24.1958 108.762 23.7654 108.57 23.3755 108.289C22.9729 108.005 22.6402 107.637 22.3775 107.185C22.1149 106.733 21.9621 106.266 21.9191 105.784C21.8682 105.306 21.9139 104.837 22.0564 104.376C22.1907 103.92 22.4111 103.501 22.7174 103.118C23.0156 102.739 23.3906 102.419 23.8425 102.156C24.2782 101.903 24.7383 101.738 25.2228 101.661C25.6993 101.589 26.1729 101.606 26.6437 101.71C27.1017 101.81 27.532 102.003 27.9347 102.287C28.3246 102.568 28.6532 102.938 28.9206 103.398ZM27.0065 107.571C27.4745 107.299 27.8436 106.95 28.1136 106.523C28.3709 106.093 28.5117 105.638 28.5359 105.16C28.5521 104.686 28.4383 104.24 28.1944 103.82C27.9505 103.401 27.6147 103.083 27.1871 102.867C26.7595 102.652 26.291 102.552 25.7817 102.567C25.2644 102.587 24.7758 102.731 24.3158 102.998C23.8478 103.27 23.4811 103.624 23.2157 104.059C22.9504 104.493 22.8056 104.95 22.7813 105.428C22.7571 105.907 22.8669 106.356 23.1108 106.775C23.3547 107.195 23.6945 107.51 24.1302 107.721C24.5612 107.924 25.0313 108.018 25.5406 108.002C26.0418 107.992 26.5304 107.848 27.0065 107.571Z" fill="black"/>
<path d="M16.9176 102.347L16.5503 101.469L24.455 98.1633C24.7908 98.0228 24.9851 97.8707 25.0381 97.707C25.091 97.5432 25.0814 97.3752 25.0094 97.203C24.9446 97.048 24.8626 96.9002 24.7633 96.7596C24.664 96.6191 24.5738 96.5 24.4925 96.4025L25.1381 95.9504C25.2754 96.0852 25.416 96.2641 25.5599 96.4872C25.7002 96.7017 25.8063 96.8951 25.8783 97.0673C26.044 97.4634 26.0609 97.8306 25.9293 98.1689C25.794 98.4986 25.524 98.7481 25.1193 98.9173L16.9176 102.347Z" fill="black"/>
<path d="M14.6846 96.2103L14.4088 95.2992L22.6092 92.8165C22.9576 92.711 23.1664 92.5795 23.2357 92.422C23.3051 92.2645 23.3127 92.0964 23.2586 91.9177C23.2099 91.7569 23.1434 91.6015 23.059 91.4516C22.9746 91.3016 22.8969 91.174 22.826 91.0686L23.5143 90.6847C23.6372 90.8328 23.7588 91.0252 23.8792 91.2618C23.9968 91.4894 24.0827 91.6926 24.1368 91.8712C24.2612 92.2822 24.2407 92.6492 24.0752 92.9723C23.9071 93.2865 23.6131 93.5072 23.1932 93.6343L14.6846 96.2103Z" fill="black"/>
<path d="M18.9746 83.0076L18.0953 83.0767L17.775 79.0013L18.6543 78.9322L18.9746 83.0076Z" fill="black"/>
<path d="M18.8382 70.4042C18.1569 70.2904 17.5586 70.0486 17.0431 69.6786C16.52 69.2979 16.1297 68.8306 15.8721 68.2766C15.6145 67.7226 15.5387 67.128 15.6447 66.4928C15.7447 65.8944 15.9949 65.3874 16.3955 64.9717C16.7885 64.5452 17.2328 64.2362 17.7284 64.0445L13.3372 63.3113L13.494 62.3723L22.4421 63.8664C22.571 63.888 22.6723 63.8765 22.7459 63.832C22.8104 63.786 22.8565 63.7085 22.8841 63.5996L23.6298 63.7241C23.6267 63.9128 23.612 64.0571 23.5859 64.1568C23.5444 64.3486 23.4378 64.5058 23.2659 64.6285C23.094 64.7512 22.9206 64.798 22.7457 64.7688L22.0414 64.6512C22.4633 65.0149 22.7715 65.4638 22.9662 65.9979C23.1609 66.5319 23.2145 67.0613 23.1269 67.586C23.0439 68.0831 22.8657 68.5265 22.5925 68.9162C22.3208 69.2966 21.9839 69.6141 21.5818 69.8687C21.1813 70.1141 20.7454 70.2874 20.2744 70.3885C19.7956 70.4789 19.3169 70.4841 18.8382 70.4042ZM20.9459 64.5818L18.7227 64.2106C18.3713 64.2749 18.0398 64.4183 17.7282 64.6407C17.4075 64.8615 17.1404 65.1292 16.9271 65.4437C16.706 65.7474 16.5678 66.065 16.5125 66.3964C16.4479 66.783 16.4724 67.1467 16.5858 67.4874C16.69 67.8265 16.861 68.1342 17.0988 68.4105C17.3381 68.6775 17.6226 68.9001 17.9525 69.0782C18.2823 69.2563 18.6313 69.3761 18.9996 69.4375C19.3862 69.5021 19.7652 69.4991 20.1366 69.4287C20.5094 69.349 20.8547 69.2079 21.1724 69.0055C21.4809 68.8015 21.7357 68.5507 21.9368 68.2531C22.1378 67.9555 22.2699 67.618 22.3329 67.2405C22.3729 67.0012 22.3684 66.7449 22.3194 66.4718C22.2703 66.1987 22.1868 65.934 22.0687 65.6777C21.943 65.4107 21.7827 65.1805 21.5879 64.9871C21.3931 64.7937 21.1791 64.6586 20.9459 64.5818Z" fill="black"/>
<path d="M25.3824 59.2645C25.2159 59.7599 24.9684 60.1887 24.6398 60.5509C24.3054 60.9013 23.9225 61.1763 23.4911 61.3759C23.0538 61.5637 22.5946 61.6703 22.1135 61.6956C21.6235 61.718 21.1396 61.6489 20.6619 61.4883C20.1664 61.3218 19.7346 61.0831 19.3665 60.7723C18.9895 60.4585 18.6894 60.0917 18.4661 59.6721C18.234 59.2494 18.0949 58.799 18.0489 58.3207C17.997 57.8306 18.0544 57.3379 18.2209 56.8425C18.3874 56.347 18.6379 55.9241 18.9723 55.5737C19.2978 55.2204 19.6807 54.9454 20.121 54.7487C20.5524 54.5491 21.0131 54.4381 21.5031 54.4158C21.9843 54.3904 22.4726 54.461 22.968 54.6275C23.4457 54.7881 23.8731 55.0253 24.2501 55.3391C24.6182 55.6499 24.9184 56.0167 25.1505 56.4393C25.3767 56.8501 25.5158 57.3006 25.5677 57.7907C25.6137 58.2689 25.5519 58.7602 25.3824 59.2645ZM20.9829 60.5771C21.496 60.7496 22.0021 60.7966 22.5011 60.7182C22.9942 60.6279 23.4286 60.4342 23.8041 60.1371C24.1709 59.8369 24.4316 59.4569 24.5862 58.9968C24.7408 58.5368 24.7582 58.0749 24.6384 57.6112C24.5186 57.1476 24.285 56.7293 23.9376 56.3566C23.5814 55.9808 23.1512 55.7082 22.6469 55.5387C22.1338 55.3662 21.6263 55.3236 21.1243 55.4109C20.6223 55.4982 20.1836 55.6904 19.808 55.9876C19.4324 56.2847 19.1673 56.6633 19.0126 57.1234C18.858 57.5834 18.845 58.0468 18.9737 58.5134C19.1054 58.9712 19.3449 59.3865 19.6922 59.7593C20.0307 60.129 20.4609 60.4017 20.9829 60.5771Z" fill="black"/>
<path d="M25.2443 42.7031L25.6941 41.88L30.5911 48.1295L30.195 48.8544L26.2813 48.4548L28.7382 51.5203L28.3422 52.2452L20.4377 51.4995L20.8807 50.6887L27.697 51.3821L25.4544 48.6251L22.2222 48.2629L22.6317 47.5135L25.1511 47.8372L23.5246 45.8795L23.9274 45.1424L25.9847 47.6545L29.5163 48.0527L25.2443 42.7031Z" fill="black"/>
<path d="M36.5103 40.5428L35.9147 41.2854L32.7365 38.7366C32.0666 38.1994 31.5 37.9065 31.0365 37.8578C30.5658 37.8034 30.1611 37.9873 29.8224 38.4096C29.5888 38.7008 29.431 39.0468 29.3489 39.4476C29.2595 39.8425 29.251 40.2484 29.3234 40.6654C29.3943 41.0692 29.5484 41.444 29.7856 41.7898L33.2696 44.5838L32.674 45.3265L26.9838 40.7632L27.5268 40.086L28.8156 41.1195C28.6615 40.7448 28.5818 40.3518 28.5765 39.9408C28.5639 39.5239 28.6248 39.1122 28.7594 38.7057C28.894 38.2991 29.0956 37.9284 29.3642 37.5935C29.6153 37.2804 29.8867 37.0613 30.1783 36.9363C30.47 36.8113 30.7776 36.7709 31.1012 36.815C31.4174 36.8533 31.7518 36.9659 32.1043 37.1529C32.4496 37.3341 32.8079 37.5735 33.1792 37.8713L36.5103 40.5428Z" fill="black"/>
<path d="M44.4739 33.9232C43.9967 34.2824 43.4941 34.5381 42.9661 34.6903C42.4381 34.8424 41.9043 34.8705 41.3646 34.7744L41.2736 34.0017C41.8319 34.0605 42.3284 34.0372 42.7631 33.9318C43.1997 33.8135 43.6044 33.6139 43.9772 33.3333C44.4321 32.9909 44.7338 32.6235 44.8825 32.2312C45.0255 31.8315 44.9679 31.4602 44.7097 31.1172C44.5357 30.886 44.3329 30.7641 44.1014 30.7514C43.8718 30.7257 43.5984 30.7738 43.2813 30.8957C42.966 31.0045 42.5957 31.1489 42.1705 31.3289C41.6836 31.5202 41.2573 31.66 40.8916 31.7484C40.5277 31.8237 40.2048 31.8215 39.9228 31.7417C39.6426 31.6489 39.3875 31.4496 39.1573 31.1439C38.871 30.7636 38.7285 30.3803 38.7297 29.9939C38.7327 29.5944 38.8505 29.2078 39.0832 28.834C39.3177 28.4472 39.64 28.0994 40.0501 27.7907C40.4975 27.4539 40.946 27.2272 41.3957 27.1107C41.8454 26.9942 42.2737 26.9812 42.6808 27.072L42.699 27.8644C42.3106 27.7829 41.9289 27.7957 41.5539 27.9028C41.1807 27.9968 40.8189 28.1757 40.4685 28.4396C40.2299 28.6192 40.0277 28.8239 39.862 29.0538C39.6906 29.2763 39.5903 29.5154 39.5609 29.7712C39.5333 30.0139 39.6149 30.262 39.8058 30.5155C39.963 30.7243 40.1387 30.8491 40.3329 30.8898C40.5215 30.9231 40.751 30.9021 41.0216 30.827C41.2865 30.7444 41.6055 30.6327 41.9786 30.4921C42.5083 30.2802 42.9849 30.1141 43.4085 29.9939C43.8264 29.8662 44.1978 29.8319 44.5227 29.8911C44.8476 29.9502 45.142 30.155 45.4058 30.5055C45.8156 31.0498 45.9305 31.6292 45.7505 32.2437C45.5705 32.8581 45.145 33.418 44.4739 33.9232Z" fill="black"/>
<path d="M51.3172 29.7152C50.8512 29.9719 50.3747 30.1225 49.8878 30.167C49.4045 30.1988 48.9301 30.1404 48.4647 29.9918C48.0074 29.8388 47.5867 29.607 47.2026 29.2965C46.8266 28.9815 46.5147 28.5992 46.2671 28.1495C45.9338 27.5446 45.7647 26.9185 45.7598 26.2712C45.7549 25.6239 45.9126 25.0202 46.2328 24.4603C46.553 23.9003 47.0278 23.4469 47.6573 23.1001C48.2541 22.7714 48.8579 22.6199 49.4689 22.6457C50.0753 22.6633 50.6172 22.8443 51.0946 23.1887L50.4271 23.892C50.0671 23.6641 49.6741 23.5503 49.248 23.5505C48.8256 23.5381 48.4182 23.64 48.0258 23.8562C47.6007 24.0903 47.2732 24.4146 47.0432 24.829C46.8133 25.2433 46.6979 25.7012 46.697 26.2025C46.7043 26.6993 46.843 27.193 47.1132 27.6835C47.3789 28.1658 47.7261 28.5446 48.1548 28.8199C48.5835 29.0953 49.0389 29.2546 49.521 29.2981C49.9986 29.3333 50.45 29.2339 50.8751 28.9997C51.1531 28.8466 51.3917 28.6512 51.5911 28.4135C51.7987 28.1713 51.9514 27.9167 52.0494 27.6496C52.151 27.3698 52.1805 27.1138 52.1378 26.8816L53.0945 26.6743C53.1467 27.0398 53.1055 27.4195 52.9708 27.8134C52.8398 28.1945 52.6327 28.5537 52.3495 28.8908C52.0701 29.2153 51.7259 29.4901 51.3172 29.7152Z" fill="black"/>
<path d="M56.7112 20.247C56.127 20.4957 55.6701 20.8649 55.3406 21.3547C55.0198 21.841 54.8753 22.3937 54.9071 23.0127L56.5602 27.2367L55.6737 27.5837L53.0154 20.7913L53.8498 20.4648L54.4876 22.0944C54.5352 21.5246 54.6923 21.017 54.9591 20.5719C55.2346 20.1233 55.5828 19.7966 56.0038 19.5917C56.0873 19.549 56.1595 19.5158 56.2203 19.492C56.2898 19.4647 56.348 19.447 56.3949 19.4387L56.7112 20.247Z" fill="black"/>
<path d="M64.372 25.0278C63.8639 25.1505 63.3691 25.1691 62.8876 25.0838C62.413 24.9871 61.9764 24.8093 61.5778 24.5503C61.1861 24.28 60.8515 23.9479 60.574 23.554C60.2943 23.1511 60.0953 22.7047 59.977 22.2148C59.8543 21.7067 59.8266 21.2141 59.8938 20.737C59.9589 20.2508 60.1097 19.8015 60.3461 19.3892C60.5804 18.9678 60.8878 18.6103 61.2682 18.3168C61.6555 18.0121 62.1032 17.7984 62.6113 17.6757C63.1193 17.553 63.6107 17.54 64.0853 17.6367C64.5577 17.7242 64.9943 17.9021 65.3951 18.1702C65.7937 18.4292 66.1328 18.7602 66.4125 19.1631C66.6901 19.557 66.8902 20.0079 67.0128 20.516C67.1311 21.0059 67.1577 21.494 67.0927 21.9802C67.0254 22.4573 66.8747 22.9065 66.6404 23.328C66.413 23.7381 66.1056 24.0956 65.7183 24.4003C65.3379 24.6938 64.8891 24.903 64.372 25.0278ZM60.9193 22.0016C61.0463 22.5279 61.2758 22.9813 61.6078 23.3621C61.9467 23.7315 62.3418 23.9962 62.7933 24.156C63.2425 24.3068 63.703 24.3252 64.1748 24.2113C64.6466 24.0974 65.0469 23.8663 65.3757 23.5181C65.7045 23.1699 65.9342 22.7495 66.065 22.2571C66.1935 21.7556 66.1954 21.2463 66.0705 20.7291C65.9435 20.2029 65.7094 19.7505 65.3684 19.372C65.0274 18.9935 64.6311 18.7243 64.1797 18.5644C63.7282 18.4046 63.2666 18.3816 62.7948 18.4955C62.323 18.6094 61.9238 18.845 61.5972 19.2023C61.2797 19.5575 61.0556 19.9812 60.9248 20.4737C60.7919 20.957 60.7901 21.4664 60.9193 22.0016Z" fill="black"/>
<path d="M68.8072 13.8249L69.7539 13.7238L70.6642 22.2433C70.7029 22.6052 70.7931 22.8349 70.935 22.9324C71.0768 23.0299 71.2405 23.0687 71.4261 23.0489C71.5932 23.031 71.7582 22.9946 71.9213 22.9397C72.0844 22.8847 72.2243 22.8322 72.341 22.7822L72.5898 23.53C72.4214 23.6231 72.2098 23.7067 71.9549 23.7809C71.7093 23.854 71.4936 23.9005 71.308 23.9204C70.8811 23.966 70.5244 23.8774 70.2377 23.6546C69.9604 23.4308 69.7984 23.1008 69.7518 22.6646L68.8072 13.8249Z" fill="black"/>
<path d="M75.3262 13.4376L76.2782 13.4335L76.3155 22.0014C76.3171 22.3654 76.3834 22.6031 76.5146 22.7145C76.6457 22.826 76.8046 22.8813 76.9913 22.8805C77.1593 22.8797 77.3272 22.8603 77.4951 22.8223C77.6629 22.7842 77.8074 22.7462 77.9286 22.7084L78.0999 23.4776C77.9229 23.5531 77.7038 23.6147 77.4427 23.6625C77.1909 23.7103 76.9717 23.7346 76.785 23.7354C76.3557 23.7372 76.0098 23.6128 75.7474 23.3619C75.4943 23.111 75.3668 22.7662 75.3649 22.3275L75.3262 13.4376Z" fill="black"/>
<path d="M86.7538 21.3196L86.9387 20.4572L90.9359 21.3141L90.751 22.1765L86.7538 21.3196Z" fill="black"/>
<path d="M98.8713 24.7883C99.1748 24.1679 99.5775 23.6636 100.079 23.2752C100.593 22.8826 101.153 22.642 101.757 22.5533C102.362 22.4647 102.953 22.5619 103.532 22.8449C104.077 23.1116 104.491 23.4962 104.775 23.9989C105.072 24.4972 105.241 25.0113 105.283 25.541L107.24 21.5421L108.095 21.9606L104.107 30.1093C104.05 30.2267 104.032 30.327 104.054 30.4103C104.079 30.4852 104.14 30.5515 104.237 30.6091L103.905 31.2881C103.725 31.2312 103.591 31.176 103.502 31.1225C103.331 31.028 103.21 30.8808 103.142 30.6811C103.073 30.4813 103.078 30.3018 103.156 30.1425L103.47 29.5011C103.001 29.8015 102.482 29.9688 101.915 30.0028C101.348 30.0369 100.825 29.937 100.347 29.7032C99.8945 29.4817 99.5204 29.1844 99.2251 28.8112C98.938 28.4422 98.73 28.0286 98.6008 27.5706C98.4801 27.1166 98.4385 26.6495 98.4761 26.1691C98.5262 25.6845 98.6579 25.2242 98.8713 24.7883ZM103.849 28.4711L104.84 26.4465C104.879 26.0913 104.836 25.7327 104.712 25.3706C104.592 25.0002 104.411 24.6678 104.171 24.3735C103.943 24.0749 103.678 23.8517 103.376 23.7041C103.024 23.5318 102.669 23.4513 102.31 23.4627C101.955 23.4658 101.611 23.5418 101.279 23.6907C100.954 23.8438 100.66 24.0529 100.395 24.3182C100.13 24.5834 99.9156 24.8837 99.7515 25.219C99.5792 25.5711 99.4738 25.9352 99.4353 26.3112C99.4052 26.6913 99.4417 27.0625 99.545 27.4247C99.6524 27.7786 99.82 28.0944 100.048 28.3721C100.276 28.6499 100.561 28.8728 100.905 29.041C101.123 29.1477 101.37 29.2165 101.646 29.2475C101.921 29.2786 102.199 29.2741 102.478 29.2341C102.77 29.1899 103.036 29.1021 103.277 28.9706C103.518 28.8391 103.709 28.6726 103.849 28.4711Z" fill="black"/>
<path d="M107.678 34.2415C107.251 33.9404 106.91 33.5807 106.657 33.1624C106.417 32.7419 106.263 32.2964 106.195 31.8259C106.14 31.3532 106.169 30.8827 106.282 30.4143C106.4 29.9383 106.605 29.4944 106.895 29.0824C107.196 28.6551 107.548 28.3095 107.951 28.0455C108.36 27.7738 108.797 27.5909 109.263 27.4968C109.734 27.3951 110.205 27.3905 110.677 27.4829C111.161 27.5732 111.617 27.7688 112.044 28.0699C112.472 28.371 112.805 28.7318 113.046 29.1523C113.291 29.5653 113.446 30.0108 113.508 30.4888C113.576 30.9593 113.551 31.4325 113.433 31.9085C113.32 32.3769 113.112 32.8246 112.811 33.2519C112.521 33.6639 112.172 34.0057 111.763 34.2774C111.36 34.5414 110.923 34.7243 110.452 34.826C109.993 34.9255 109.522 34.9301 109.038 34.8399C108.566 34.7474 108.113 34.5479 107.678 34.2415ZM107.676 29.6503C107.365 30.0928 107.175 30.5643 107.108 31.065C107.053 31.5633 107.115 32.0349 107.292 32.4797C107.475 32.9169 107.765 33.2753 108.162 33.5548C108.559 33.8344 108.996 33.983 109.475 34.0006C109.953 34.0181 110.421 33.9137 110.877 33.6873C111.339 33.4533 111.723 33.1188 112.03 32.684C112.342 32.2415 112.527 31.7672 112.587 31.2612C112.647 30.7553 112.588 30.2799 112.41 29.8351C112.233 29.3902 111.946 29.0281 111.549 28.7485C111.152 28.4689 110.712 28.3241 110.228 28.3142C109.752 28.3096 109.285 28.4205 108.829 28.6469C108.378 28.8657 107.994 29.2002 107.676 29.6503Z" fill="black"/>
<path d="M123.589 38.8389L124.249 39.5051L116.862 42.4133L116.28 41.8267L117.781 38.1901L114.141 39.6692L113.56 39.0826L116.532 31.7203L117.182 32.3765L114.571 38.7108L117.854 37.349L119.124 34.3549L119.725 34.9614L118.695 37.2833L121.036 36.2837L121.627 36.8802L118.632 38.1344L117.242 41.4051L123.589 38.8389Z" fill="black"/>
<path d="M122.442 50.2527L121.9 49.4698L125.251 47.1519C125.957 46.6634 126.399 46.204 126.578 45.7737C126.765 45.3381 126.704 44.8977 126.396 44.4526C126.184 44.1455 125.897 43.8955 125.537 43.7023C125.184 43.5039 124.797 43.3798 124.377 43.3301C123.97 43.2827 123.566 43.3233 123.167 43.4519L119.495 45.9928L118.953 45.21L124.951 41.06L125.445 41.7738L124.087 42.7137C124.49 42.6731 124.889 42.709 125.285 42.8212C125.688 42.9282 126.065 43.1042 126.416 43.3493C126.767 43.5944 127.065 43.8935 127.309 44.2465C127.538 44.5766 127.67 44.8992 127.706 45.2144C127.743 45.5297 127.694 45.836 127.559 46.1335C127.432 46.4256 127.229 46.7139 126.949 46.9984C126.677 47.2775 126.345 47.5525 125.953 47.8233L122.442 50.2527Z" fill="black"/>
<path d="M126.511 59.7751C126.303 59.2152 126.202 58.6605 126.207 58.111C126.212 57.5616 126.337 57.042 126.584 56.5523L127.35 56.6857C127.134 57.204 127.015 57.6864 126.992 58.1331C126.98 58.5854 127.056 59.0302 127.219 59.4677C127.417 60.0014 127.683 60.3954 128.016 60.6499C128.358 60.9011 128.731 60.952 129.133 60.8025C129.404 60.7017 129.579 60.5422 129.657 60.324C129.748 60.1113 129.78 59.8355 129.753 59.4968C129.739 59.1636 129.706 58.7675 129.655 58.3085C129.611 57.7873 129.599 57.3389 129.619 56.9632C129.65 56.5929 129.745 56.2841 129.902 56.0366C130.071 55.7946 130.335 55.607 130.693 55.4737C131.14 55.308 131.548 55.2809 131.918 55.3923C132.3 55.5093 132.636 55.7327 132.928 56.0624C133.232 56.3976 133.473 56.8058 133.652 57.287C133.847 57.812 133.936 58.3065 133.919 58.7708C133.903 59.235 133.793 59.6492 133.589 60.0134L132.825 59.8046C133.014 59.4556 133.11 59.0861 133.115 58.6962C133.131 58.3117 133.063 57.9139 132.911 57.5026C132.807 57.2227 132.668 56.9704 132.495 56.746C132.331 56.5182 132.13 56.3538 131.894 56.2525C131.669 56.1568 131.408 56.1642 131.11 56.2747C130.865 56.3657 130.696 56.4984 130.601 56.6729C130.515 56.8441 130.47 57.0701 130.465 57.3508C130.468 57.6283 130.484 57.9659 130.512 58.3636C130.564 58.9318 130.587 59.4361 130.581 59.8763C130.584 60.3132 130.511 60.679 130.362 60.9734C130.212 61.2679 129.932 61.4915 129.521 61.6443C128.882 61.8815 128.294 61.8262 127.756 61.4782C127.219 61.1303 126.804 60.5626 126.511 59.7751Z" fill="black"/>
<path d="M128.59 67.5352C128.477 67.0153 128.469 66.5157 128.565 66.0363C128.673 65.564 128.864 65.1261 129.139 64.7225C129.416 64.328 129.759 63.991 130.166 63.7115C130.575 63.4411 131.031 63.2515 131.532 63.1425C132.207 62.996 132.856 63.0127 133.477 63.1929C134.099 63.373 134.633 63.6965 135.078 64.1633C135.523 64.6301 135.822 65.2147 135.974 65.917C136.119 66.5828 136.092 67.2048 135.893 67.7829C135.703 68.359 135.374 68.8266 134.908 69.1858L134.425 68.3453C134.746 68.0654 134.967 67.7212 135.089 67.3128C135.221 66.9115 135.24 66.492 135.145 66.0542C135.042 65.5799 134.824 65.1735 134.493 64.8347C134.162 64.496 133.756 64.2547 133.276 64.1106C132.797 63.9757 132.285 63.9677 131.737 64.0865C131.199 64.2034 130.737 64.428 130.351 64.7602C129.965 65.0924 129.682 65.4833 129.502 65.933C129.332 66.3806 129.299 66.8416 129.402 67.3159C129.469 67.626 129.588 67.9105 129.759 68.1695C129.932 68.4376 130.132 68.6567 130.36 68.8268C130.599 69.0041 130.836 69.1055 131.071 69.1309L130.996 70.107C130.631 70.0526 130.279 69.9046 129.94 69.6631C129.612 69.4286 129.327 69.1276 129.085 68.76C128.854 68.3995 128.689 67.9912 128.59 67.5352Z" fill="black"/>
<path d="M136.123 75.4086C136.052 74.7777 135.828 74.2345 135.453 73.7788C135.078 73.3324 134.59 73.0361 133.988 72.8898L129.468 73.2677L129.388 72.319L136.657 71.7113L136.732 72.6042L134.988 72.75C135.52 72.9583 135.962 73.2539 136.312 73.6367C136.663 74.0288 136.877 74.4558 136.953 74.9178C136.97 75.01 136.981 75.0887 136.987 75.1538C136.993 75.2282 136.993 75.289 136.988 75.3363L136.123 75.4086Z" fill="black"/>
<path d="M129.353 81.3849C129.381 80.863 129.504 80.3835 129.724 79.9465C129.952 79.5192 130.247 79.1516 130.609 78.8436C130.98 78.5454 131.394 78.3195 131.85 78.1661C132.317 78.0131 132.801 77.9498 133.305 77.9764C133.826 78.004 134.306 78.1181 134.744 78.3188C135.192 78.52 135.579 78.7927 135.907 79.1372C136.244 79.4821 136.499 79.8787 136.671 80.3271C136.853 80.7853 136.93 81.2754 136.902 81.7973C136.875 82.3192 136.747 82.7938 136.519 83.2211C136.3 83.6488 136.005 84.0164 135.633 84.3239C135.271 84.632 134.857 84.8625 134.391 85.0154C133.934 85.1689 133.445 85.2319 132.923 85.2044C132.42 85.1778 131.944 85.0639 131.497 84.8627C131.059 84.662 130.672 84.3892 130.335 84.0443C130.006 83.7092 129.752 83.3126 129.57 82.8544C129.398 82.406 129.325 81.9162 129.353 81.3849ZM133.24 78.9403C132.699 78.9118 132.199 79.0022 131.739 79.2116C131.288 79.4309 130.922 79.734 130.64 80.121C130.367 80.5085 130.218 80.9445 130.192 81.4292C130.167 81.9139 130.274 82.3635 130.514 82.778C130.753 83.1926 131.091 83.5328 131.525 83.7987C131.969 84.0652 132.457 84.2124 132.988 84.2404C133.529 84.269 134.029 84.1739 134.489 83.9551C134.949 83.7364 135.32 83.4336 135.603 83.0465C135.885 82.6595 136.038 82.2237 136.064 81.7391C136.09 81.2544 135.978 80.8045 135.729 80.3895C135.479 79.9838 135.137 79.648 134.702 79.382C134.277 79.1166 133.79 78.9693 133.24 78.9403Z" fill="black"/>
<path d="M138.823 88.835L138.65 89.771L130.225 88.2103C129.867 88.144 129.621 88.1649 129.487 88.273C129.353 88.3811 129.269 88.5269 129.235 88.7104C129.205 88.8756 129.192 89.0442 129.199 89.2162C129.205 89.3882 129.215 89.5372 129.23 89.6633L128.442 89.6883C128.401 89.5003 128.381 89.2736 128.383 89.0081C128.383 88.7518 128.4 88.5319 128.434 88.3484C128.512 87.9262 128.699 87.6096 128.994 87.3986C129.288 87.1967 129.65 87.1357 130.082 87.2156L138.823 88.835Z" fill="black"/>
<path d="M137.332 95.193L137.065 96.1065L128.843 93.6953C128.494 93.5929 128.247 93.5886 128.102 93.6825C127.958 93.7763 127.86 93.9128 127.807 94.0919C127.76 94.2532 127.731 94.4196 127.719 94.5913C127.708 94.7631 127.703 94.9124 127.705 95.0393L126.918 94.9838C126.897 94.7927 126.9 94.5651 126.929 94.3012C126.955 94.0463 126.994 93.8292 127.047 93.6501C127.168 93.2381 127.386 92.9422 127.701 92.7623C128.014 92.5915 128.381 92.5677 128.802 92.6912L137.332 95.193Z" fill="black"/>
<path d="M126.515 103.894L127.289 104.317L125.326 107.903L124.552 107.48L126.515 103.894Z" fill="black"/>
<path d="M119.73 114.516C120.238 114.984 120.606 115.514 120.835 116.106C121.065 116.71 121.135 117.315 121.048 117.92C120.96 118.525 120.698 119.064 120.262 119.537C119.85 119.983 119.363 120.271 118.801 120.399C118.238 120.541 117.697 120.556 117.178 120.445L120.451 123.463L119.806 124.163L113.135 118.014C113.039 117.926 112.948 117.88 112.862 117.877C112.783 117.88 112.702 117.919 112.619 117.996L112.063 117.483C112.169 117.327 112.261 117.214 112.337 117.145C112.477 117.007 112.652 116.934 112.863 116.925C113.074 116.917 113.245 116.973 113.375 117.093L113.9 117.577C113.746 117.041 113.734 116.497 113.863 115.944C113.993 115.39 114.238 114.918 114.598 114.527C114.94 114.156 115.332 113.882 115.774 113.706C116.209 113.536 116.665 113.455 117.141 113.462C117.61 113.476 118.07 113.569 118.52 113.743C118.97 113.929 119.373 114.187 119.73 114.516ZM114.779 118.235L116.436 119.762C116.766 119.901 117.122 119.962 117.504 119.947C117.893 119.937 118.263 119.86 118.614 119.713C118.965 119.58 119.255 119.39 119.483 119.143C119.748 118.855 119.927 118.537 120.018 118.19C120.117 117.849 120.142 117.498 120.094 117.136C120.04 116.782 119.924 116.44 119.746 116.11C119.567 115.781 119.34 115.489 119.066 115.236C118.778 114.971 118.459 114.766 118.11 114.621C117.754 114.484 117.388 114.413 117.011 114.408C116.641 114.41 116.291 114.481 115.96 114.62C115.628 114.759 115.333 114.969 115.074 115.25C114.909 115.429 114.773 115.646 114.664 115.901C114.556 116.156 114.481 116.424 114.439 116.703C114.398 116.995 114.406 117.275 114.464 117.544C114.521 117.812 114.626 118.043 114.779 118.235Z" fill="black"/>
<path d="M108.156 120.256C108.566 119.932 109.008 119.709 109.481 119.586C109.953 119.476 110.424 119.455 110.894 119.524C111.363 119.606 111.805 119.769 112.222 120.011C112.644 120.26 113.011 120.583 113.323 120.979C113.647 121.389 113.877 121.826 114.015 122.287C114.159 122.756 114.21 123.227 114.167 123.701C114.13 124.182 113.999 124.635 113.776 125.06C113.551 125.499 113.234 125.88 112.823 126.203C112.412 126.526 111.971 126.743 111.5 126.853C111.034 126.971 110.563 126.992 110.087 126.915C109.616 126.846 109.17 126.687 108.748 126.437C108.331 126.195 107.961 125.869 107.638 125.458C107.326 125.062 107.098 124.63 106.954 124.161C106.816 123.699 106.766 123.228 106.803 122.747C106.839 122.28 106.969 121.826 107.194 121.388C107.417 120.962 107.738 120.585 108.156 120.256ZM112.556 121.566C112.221 121.14 111.823 120.824 111.363 120.617C110.9 120.422 110.431 120.347 109.954 120.39C109.483 120.44 109.057 120.615 108.675 120.916C108.294 121.216 108.027 121.593 107.873 122.047C107.72 122.5 107.686 122.978 107.773 123.48C107.865 123.99 108.076 124.453 108.405 124.871C108.74 125.296 109.142 125.61 109.61 125.812C110.077 126.013 110.55 126.093 111.027 126.05C111.504 126.007 111.933 125.835 112.314 125.535C112.695 125.234 112.96 124.854 113.108 124.393C113.248 123.937 113.275 123.459 113.188 122.957C113.107 122.462 112.897 121.998 112.556 121.566Z" fill="black"/>
<path d="M99.2054 134.191L98.3784 134.634L97.7013 126.723L98.4295 126.333L101.486 128.81L101.108 124.9L101.836 124.51L108.043 129.461L107.228 129.897L101.904 125.585L102.271 129.12L104.778 131.193L104.025 131.596L102.094 129.946L102.383 132.474L101.643 132.871L101.296 129.642L98.5587 127.376L99.2054 134.191Z" fill="black"/>
<path d="M88.5946 129.832L89.4996 129.537L90.7642 133.409C91.0307 134.226 91.3446 134.781 91.7058 135.075C92.0699 135.379 92.5093 135.446 93.0239 135.278C93.3788 135.162 93.7002 134.959 93.9883 134.669C94.2793 134.387 94.5086 134.052 94.6763 133.664C94.838 133.287 94.9142 132.889 94.905 132.47L93.5188 128.224L94.4238 127.929L96.6878 134.863L95.8626 135.132L95.3499 133.562C95.2736 133.96 95.1252 134.332 94.9047 134.679C94.6871 135.035 94.4107 135.346 94.0755 135.612C93.7403 135.879 93.3687 136.079 92.9606 136.212C92.5791 136.337 92.232 136.371 91.9195 136.316C91.607 136.261 91.3274 136.127 91.0808 135.913C90.8371 135.708 90.6189 135.43 90.4263 135.081C90.2365 134.74 90.0678 134.344 89.92 133.891L88.5946 129.832Z" fill="black"/>
</svg>
