<svg width="193" height="189" viewBox="0 0 193 189" fill="none" xmlns="http://www.w3.org/2000/svg">
<path d="M69.429 180.82C69.2095 181.385 68.8993 181.901 68.4984 182.366C68.0855 182.836 67.6059 183.221 67.0595 183.519C66.5097 183.826 65.91 184.004 65.2606 184.052C64.6077 184.109 63.9333 184.003 63.2372 183.732C62.4107 183.411 61.7802 182.946 61.3459 182.337C60.8995 181.733 60.652 181.082 60.6032 180.382L61.4933 180.217C61.5347 180.703 61.662 181.123 61.8753 181.476C62.0853 181.838 62.344 182.139 62.6515 182.379C62.9502 182.615 63.2693 182.799 63.6086 182.93C64.1655 183.147 64.701 183.224 65.2151 183.164C65.7259 183.112 66.2018 182.956 66.6429 182.697C67.0719 182.443 67.4499 182.114 67.7768 181.71C68.1004 181.315 68.3533 180.883 68.5357 180.413C68.735 179.9 68.8389 179.374 68.8473 178.837C68.8557 178.299 68.7742 177.787 68.6029 177.3C68.4281 176.822 68.1742 176.393 67.841 176.013C67.4957 175.639 67.0751 175.355 66.5792 175.163C66.2312 175.028 65.8508 174.95 65.4381 174.93C65.0254 174.91 64.6134 174.965 64.2022 175.096C63.7823 175.223 63.399 175.45 63.0522 175.776L62.4473 175.091C62.8177 174.704 63.2655 174.427 63.7907 174.261C64.316 174.094 64.8586 174.024 65.4187 174.052C65.9701 174.075 66.4808 174.179 66.9506 174.361C67.5858 174.608 68.1163 174.969 68.5424 175.444C68.965 175.929 69.2843 176.473 69.5001 177.078C69.7039 177.688 69.8005 178.316 69.7897 178.962C69.7756 179.618 69.6554 180.237 69.429 180.82Z" fill="black"/>
<path d="M49.3614 177.36L48.5453 176.87L52.9568 169.525C53.1442 169.213 53.2107 168.975 53.1564 168.812C53.102 168.648 52.9949 168.519 52.8348 168.423C52.6908 168.336 52.5372 168.266 52.3739 168.211C52.2107 168.157 52.0675 168.114 51.9442 168.084L52.1967 167.337C52.3871 167.364 52.6064 167.425 52.8544 167.52C53.0945 167.61 53.2945 167.703 53.4546 167.799C53.8226 168.02 54.0538 168.306 54.1481 168.656C54.2343 169.002 54.1646 169.363 53.9387 169.739L49.3614 177.36Z" fill="black"/>
<path d="M45.7937 162.696L41.2713 168.419L40.5244 167.829L45.0468 162.106L45.7937 162.696ZM40.3251 169.616L39.4571 170.715L38.7102 170.124L39.5782 169.026L40.3251 169.616Z" fill="black"/>
<path d="M35.6558 153.314C36.0168 153.705 36.2772 154.131 36.4372 154.593C36.584 155.055 36.6411 155.529 36.6085 156.017C36.5696 156.498 36.4455 156.962 36.2362 157.409C36.0206 157.85 35.7242 158.244 35.3471 158.592C34.8397 159.061 34.2724 159.375 33.6452 159.535C33.018 159.695 32.3942 159.687 31.7737 159.51C31.1533 159.334 30.5992 158.982 30.1116 158.454C29.6494 157.953 29.3575 157.403 29.236 156.804C29.1076 156.211 29.1533 155.642 29.3732 155.095L30.2161 155.575C30.0811 155.979 30.0649 156.388 30.1673 156.801C30.2566 157.214 30.4532 157.585 30.7572 157.915C31.0865 158.271 31.4798 158.511 31.9373 158.635C32.3947 158.759 32.8668 158.761 33.3537 158.642C33.8343 158.516 34.2803 158.263 34.6917 157.883C35.0962 157.509 35.3807 157.081 35.5451 156.599C35.7096 156.117 35.7551 155.636 35.6816 155.158C35.6013 154.686 35.3965 154.271 35.0672 153.915C34.8519 153.682 34.605 153.497 34.3264 153.36C34.0415 153.217 33.7576 153.13 33.4749 153.099C33.1789 153.067 32.9233 153.1 32.7081 153.197L32.2774 152.318C32.6197 152.18 32.9982 152.129 33.4129 152.165C33.8143 152.201 34.2127 152.316 34.6079 152.51C34.9899 152.703 35.3392 152.971 35.6558 153.314Z" fill="black"/>
<path d="M25.0366 139.516L23.3089 143.793L25.3685 144.334L27.3008 143.12L27.8072 143.926L19.1534 149.363L18.647 148.557L24.5031 144.878L18.9393 143.496L18.3807 142.607L22.4921 143.545L24.4855 138.639L25.0366 139.516Z" fill="black"/>
<path d="M14.0579 109.929L14.259 110.859L10.2768 111.72C9.44664 111.899 8.86399 112.163 8.52886 112.513C8.19373 112.862 8.08233 113.297 8.19467 113.817C8.31095 114.355 8.60699 114.797 9.08278 115.143C9.5566 115.48 10.1133 115.67 10.7528 115.713L15.1045 114.773L15.3055 115.704L11.3233 116.564C10.484 116.745 9.9004 117.005 9.57242 117.343C9.23532 117.683 9.12392 118.118 9.23823 118.647C9.35254 119.176 9.64303 119.615 10.1097 119.963C10.5764 120.311 11.134 120.505 11.7827 120.547L16.148 119.604L16.349 120.534L9.21951 122.074L9.03622 121.226L10.651 120.877C10.0294 120.696 9.51789 120.406 9.11632 120.005C8.71278 119.596 8.44893 119.104 8.32477 118.529C8.19666 117.936 8.26197 117.421 8.52068 116.983C8.77939 116.545 9.17357 116.226 9.7032 116.026C9.03014 115.827 8.48925 115.534 8.08053 115.145C7.66984 114.746 7.40143 114.255 7.27529 113.671C7.18858 113.27 7.18864 112.917 7.27548 112.611C7.36035 112.297 7.52189 112.028 7.7601 111.805C7.98722 111.574 8.28448 111.381 8.65187 111.226C9.00817 111.063 9.41895 110.931 9.88422 110.83L14.0579 109.929Z" fill="black"/>
<path d="M13.2 96.3382C13.1924 96.8608 13.0873 97.3447 12.8848 97.7898C12.6729 98.2347 12.3919 98.618 12.0418 98.9396C11.6824 99.261 11.2727 99.5117 10.8127 99.6917C10.3528 99.8623 9.8616 99.9438 9.33899 99.9362C8.65773 99.9262 8.03471 99.7631 7.46994 99.4468C6.90531 99.1212 6.45904 98.6806 6.13113 98.1251C5.79388 97.5694 5.63038 96.9416 5.64061 96.2417C5.65112 95.5231 5.83291 94.9004 6.18599 94.3735C6.5392 93.8372 7.0027 93.4193 7.57647 93.1197C8.14092 92.8199 8.7591 92.6749 9.43103 92.6847C9.50569 92.6858 9.58035 92.6869 9.65501 92.688C9.72033 92.689 9.77159 92.6944 9.80879 92.7043L9.71748 98.9476C10.2408 98.9086 10.7095 98.7707 11.1237 98.5341C11.5287 98.288 11.8553 97.9707 12.1037 97.5823C12.3429 97.1845 12.4659 96.7522 12.4727 96.2856C12.4797 95.8096 12.3649 95.3599 12.1284 94.9364C11.892 94.5036 11.5791 94.2003 11.1896 94.0266L11.4257 93.204C11.7688 93.3583 12.0781 93.5915 12.3535 93.9036C12.629 94.2157 12.843 94.5828 12.9955 95.0051C13.1388 95.4179 13.207 95.8623 13.2 96.3382ZM9.03115 98.9656L9.10996 93.5761C8.57747 93.6057 8.10874 93.7435 7.70377 93.9896C7.29893 94.2264 6.98158 94.5438 6.75174 94.9418C6.5127 95.3303 6.3897 95.7626 6.38274 96.2385C6.37578 96.7145 6.48609 97.1501 6.71366 97.5455C6.93191 97.9407 7.2445 98.2674 7.65144 98.5253C8.04918 98.7738 8.50908 98.9206 9.03115 98.9656Z" fill="black"/>
<path d="M17.1189 61.2137L16.3239 60.8316L18.095 57.1471L18.8899 57.5293L17.1189 61.2137Z" fill="black"/>
<path d="M28.7419 39.3077C28.3024 38.8894 27.9439 38.4065 27.6664 37.8588C27.3885 37.2979 27.2155 36.708 27.1474 36.0891C27.0725 35.4638 27.1364 34.8417 27.339 34.2227C27.5348 33.5973 27.8901 33.0142 28.4049 32.4734C29.0162 31.8311 29.6862 31.4251 30.4148 31.2553C31.1431 31.0723 31.84 31.0914 32.5056 31.3126L32.3195 32.1986C31.8538 32.0516 31.4171 32.0096 31.0093 32.0724C30.5948 32.1289 30.2183 32.2537 29.8797 32.4469C29.5477 32.6333 29.2561 32.8584 29.0052 33.122C28.5933 33.5547 28.3177 34.0203 28.1781 34.5189C28.0318 35.011 27.9946 35.5104 28.0665 36.0169C28.1381 36.5103 28.2984 36.9849 28.5473 37.4409C28.7894 37.8905 29.093 38.289 29.4581 38.6365C29.857 39.0161 30.3033 39.3121 30.797 39.5244C31.2908 39.7366 31.7955 39.8562 32.3111 39.8831C32.8199 39.9036 33.3133 39.832 33.7911 39.6684C34.2687 39.4915 34.6909 39.2105 35.0577 38.8251C35.3151 38.5547 35.5316 38.2325 35.7072 37.8584C35.8828 37.4844 35.9884 37.0824 36.024 36.6524C36.0661 36.2157 36.0024 35.7749 35.833 35.3302L36.697 35.0316C36.9138 35.5214 36.9992 36.0408 36.9533 36.5899C36.9074 37.139 36.7653 37.6673 36.527 38.1749C36.2951 38.6758 36.0054 39.1087 35.6579 39.4738C35.1882 39.9673 34.6522 40.3205 34.0501 40.5334C33.4413 40.7399 32.8163 40.8279 32.1752 40.7975C31.5337 40.7539 30.9161 40.6041 30.3222 40.3481C29.7216 40.0856 29.1948 39.7388 28.7419 39.3077Z" fill="black"/>
<path d="M39.5784 22.0668L40.3423 21.4986L45.4558 28.3734C45.673 28.6654 45.8675 28.8174 46.0392 28.8293C46.2109 28.8412 46.3716 28.7914 46.5214 28.68C46.6562 28.5798 46.7798 28.4645 46.8924 28.3343C47.0049 28.2041 47.0987 28.0878 47.1737 27.9854L47.7681 28.503C47.6704 28.6687 47.5306 28.8483 47.3487 29.0417C47.1744 29.2296 47.0123 29.3792 46.8626 29.4906C46.5181 29.7468 46.1658 29.8518 45.8057 29.8056C45.4531 29.7538 45.1459 29.5519 44.8841 29.1999L39.5784 22.0668Z" fill="black"/>
<path d="M54.4966 24.348L50.9255 17.988L51.7556 17.5219L55.3267 23.8819L54.4966 24.348ZM50.1784 16.6574L49.493 15.4366L50.3231 14.9705L51.0085 16.1913L50.1784 16.6574Z" fill="black"/>
<path d="M67.0308 18.5435C66.5321 18.7286 66.0386 18.8072 65.5504 18.7792C65.0677 18.7393 64.6071 18.6115 64.1687 18.3959C63.7391 18.177 63.3572 17.8857 63.0231 17.5218C62.6978 17.1548 62.4458 16.7306 62.2673 16.2493C62.027 15.6018 61.9522 14.9575 62.0429 14.3166C62.1336 13.6757 62.3787 13.102 62.7781 12.5954C63.1775 12.0888 63.7141 11.7105 64.3879 11.4605C65.0266 11.2235 65.6462 11.1629 66.2467 11.2786C66.8438 11.3855 67.3531 11.6446 67.7744 12.0557L67.0104 12.6527C66.688 12.3741 66.3161 12.2035 65.8946 12.1409C65.4787 12.0662 65.0607 12.1068 64.6407 12.2627C64.1857 12.4315 63.8139 12.7039 63.5252 13.0797C63.2366 13.4556 63.0549 13.8914 62.98 14.3871C62.9138 14.8795 62.9781 15.3882 63.1729 15.9133C63.3645 16.4295 63.6519 16.8555 64.0353 17.1911C64.4186 17.5267 64.8455 17.7516 65.316 17.8657C65.7831 17.9711 66.2442 17.9394 66.6992 17.7706C66.9968 17.6602 67.2617 17.5022 67.494 17.2965C67.735 17.0876 67.9237 16.8583 68.06 16.6087C68.2019 16.347 68.2688 16.0981 68.2609 15.8622L69.2377 15.7984C69.2353 16.1676 69.1385 16.537 68.9471 16.9067C68.7613 17.2643 68.5034 17.589 68.1736 17.8806C67.8493 18.1602 67.4684 18.3812 67.0308 18.5435Z" fill="black"/>
<path d="M83.8317 13.9743L80.5345 10.7491L79.2501 12.4477L79.6374 14.6966L78.6992 14.8581L76.9648 4.78639L77.903 4.62482L79.0767 11.4405L82.472 6.82125L83.5068 6.64305L81.0741 10.0879L84.8527 13.7984L83.8317 13.9743Z" fill="black"/>
<path d="M115.371 15.0817L114.434 14.9135L115.154 10.9036C115.304 10.0676 115.281 9.42821 115.086 8.98536C114.89 8.54252 114.531 8.27409 114.007 8.18008C113.465 8.08277 112.944 8.18827 112.442 8.49658C111.951 8.80654 111.563 9.24901 111.28 9.82398L110.493 14.2059L109.556 14.0377L110.276 10.0278C110.428 9.18265 110.409 8.54406 110.221 8.11205C110.035 7.67085 109.676 7.40242 109.143 7.30676C108.61 7.2111 108.094 7.31284 107.595 7.61196C107.095 7.91109 106.703 8.35273 106.418 8.93689L105.629 13.3326L104.692 13.1644L105.981 5.98516L106.835 6.13855L106.543 7.76455C106.947 7.2586 107.41 6.89611 107.933 6.67707C108.465 6.45968 109.021 6.40294 109.599 6.50685C110.196 6.61406 110.648 6.87059 110.955 7.27647C111.261 7.68234 111.406 8.16829 111.39 8.73432C111.829 8.18739 112.307 7.79899 112.822 7.56911C113.347 7.34089 113.903 7.27956 114.491 7.38511C114.895 7.45768 115.222 7.5922 115.471 7.78866C115.73 7.98677 115.917 8.23847 116.033 8.54375C116.159 8.84149 116.225 9.18988 116.229 9.5889C116.244 9.98039 116.21 10.4104 116.125 10.8789L115.371 15.0817Z" fill="black"/>
<path d="M128.265 19.4605C127.785 19.2545 127.378 18.9732 127.043 18.6165C126.712 18.2513 126.465 17.8456 126.301 17.3995C126.14 16.9448 126.064 16.4705 126.073 15.9766C126.09 15.4864 126.202 15.0011 126.408 14.5207C126.676 13.8945 127.064 13.3805 127.571 12.9786C128.087 12.5803 128.665 12.3353 129.303 12.2435C129.945 12.1431 130.588 12.2308 131.232 12.5066C131.892 12.7898 132.399 13.1949 132.752 13.722C133.113 14.2527 133.323 14.8403 133.382 15.485C133.444 16.121 133.343 16.7479 133.078 17.3655C133.049 17.4341 133.019 17.5028 132.99 17.5714C132.964 17.6314 132.94 17.6768 132.917 17.7074L127.178 15.247C127.015 15.7457 126.964 16.2316 127.025 16.7047C127.098 17.1729 127.267 17.5957 127.532 17.9732C127.809 18.3458 128.162 18.624 128.591 18.8079C129.028 18.9955 129.488 19.0605 129.97 19.003C130.46 18.9491 130.859 18.7752 131.168 18.4811L131.839 19.0124C131.566 19.271 131.232 19.4682 130.839 19.6042C130.446 19.7402 130.025 19.7984 129.576 19.7787C129.14 19.7541 128.703 19.648 128.265 19.4605ZM127.422 14.6054L132.376 16.7294C132.552 16.2257 132.602 15.7398 132.529 15.2716C132.464 14.8071 132.291 14.3929 132.011 14.0289C131.742 13.6599 131.39 13.3817 130.952 13.1941C130.515 13.0066 130.07 12.9428 129.617 13.0028C129.169 13.0542 128.748 13.2189 128.354 13.4971C127.973 13.7703 127.663 14.1398 127.422 14.6054Z" fill="black"/>
<path d="M159.256 36.4517L159.911 35.862L162.645 38.9019L161.989 39.4916L159.256 36.4517Z" fill="black"/>
<path d="M175.09 55.5367C175.644 55.2895 176.227 55.1418 176.839 55.0935C177.463 55.05 178.075 55.1145 178.673 55.2871C179.28 55.4559 179.831 55.7517 180.326 56.1746C180.83 56.5937 181.234 57.1442 181.538 57.826C181.899 58.6358 182.02 59.4098 181.9 60.1482C181.792 60.8913 181.509 61.5286 181.051 62.0599L180.302 61.5507C180.616 61.1759 180.821 60.788 180.918 60.387C181.023 59.9822 181.051 59.5865 181.001 59.2C180.955 58.8219 180.858 58.4667 180.71 58.1343C180.466 57.5888 180.141 57.1566 179.733 56.8378C179.333 56.5153 178.886 56.2908 178.39 56.1646C177.907 56.043 177.407 56.0105 176.89 56.0672C176.382 56.12 175.898 56.2491 175.438 56.4545C174.935 56.6789 174.492 56.979 174.107 57.3548C173.723 57.7306 173.42 58.1518 173.199 58.6184C172.987 59.0811 172.865 59.5646 172.835 60.0688C172.817 60.5777 172.916 61.0751 173.133 61.5609C173.285 61.9019 173.5 62.2247 173.779 62.5295C174.058 62.8342 174.39 63.0849 174.774 63.2814C175.162 63.4865 175.594 63.5953 176.069 63.6079L176.017 64.5206C175.481 64.5346 174.968 64.416 174.478 64.1646C173.988 63.9132 173.553 63.5807 173.175 63.1671C172.8 62.7621 172.51 62.3294 172.304 61.8692C172.027 61.2469 171.904 60.6169 171.936 59.9791C171.977 59.3375 172.133 58.726 172.406 58.1447C172.69 57.5681 173.064 57.054 173.526 56.6022C173.998 56.1467 174.519 55.7915 175.09 55.5367Z" fill="black"/>
<path d="M186.91 72.1192L187.144 73.0418L178.841 75.1542C178.488 75.2439 178.273 75.3659 178.197 75.5202C178.121 75.6744 178.106 75.842 178.152 76.0229C178.193 76.1857 178.253 76.3439 178.33 76.4975C178.408 76.6511 178.48 76.7821 178.546 76.8905L177.841 77.2432C177.725 77.0897 177.612 76.8921 177.502 76.6504C177.395 76.4176 177.318 76.2108 177.272 76.0299C177.166 75.6138 177.203 75.2481 177.383 74.9327C177.565 74.6264 177.869 74.4191 178.294 74.311L186.91 72.1192Z" fill="black"/>
<path d="M179.123 85.0466L186.363 84.1647L186.478 85.1097L179.238 85.9916L179.123 85.0466ZM187.878 83.9801L189.268 83.8109L189.383 84.7559L187.993 84.9252L187.878 83.9801Z" fill="black"/>
<path d="M179.72 98.8468C179.739 98.3151 179.854 97.8289 180.066 97.388C180.286 96.9568 180.58 96.5796 180.946 96.2562C181.312 95.9422 181.727 95.7 182.19 95.5295C182.653 95.3683 183.142 95.2967 183.655 95.3148C184.345 95.339 184.969 95.515 185.527 95.8428C186.085 96.1706 186.523 96.6156 186.839 97.1777C187.156 97.7398 187.301 98.38 187.276 99.0982C187.252 99.7791 187.072 100.375 186.737 100.886C186.411 101.398 185.977 101.77 185.437 102.003L185.175 101.07C185.556 100.878 185.855 100.599 186.073 100.233C186.301 99.8765 186.422 99.4745 186.438 99.0268C186.455 98.5417 186.345 98.0943 186.107 97.6843C185.869 97.2744 185.535 96.9405 185.105 96.6825C184.675 96.4339 184.18 96.2998 183.621 96.2802C183.07 96.2608 182.567 96.3646 182.111 96.5913C181.655 96.8181 181.284 97.1273 181 97.5189C180.724 97.9108 180.578 98.3493 180.561 98.8343C180.55 99.1514 180.595 99.4566 180.697 99.7496C180.798 100.052 180.939 100.314 181.118 100.535C181.306 100.766 181.51 100.922 181.732 101.005L181.419 101.932C181.078 101.79 180.774 101.559 180.505 101.242C180.245 100.934 180.042 100.572 179.898 100.156C179.763 99.7495 179.704 99.3132 179.72 98.8468Z" fill="black"/>
<path d="M177.552 116.122L181.789 114.301L180.707 112.467L178.48 111.969L178.688 111.04L188.661 113.269L188.454 114.198L181.704 112.689L184.684 117.587L184.455 118.612L182.195 115.051L177.326 117.133L177.552 116.122Z" fill="black"/>
<path d="M164.525 144.867L165.037 144.064L168.471 146.256C169.187 146.713 169.787 146.936 170.271 146.923C170.755 146.911 171.14 146.681 171.426 146.232C171.722 145.768 171.823 145.246 171.729 144.665C171.629 144.092 171.368 143.565 170.944 143.084L167.191 140.689L167.703 139.887L171.137 142.079C171.861 142.541 172.459 142.767 172.93 142.757C173.409 142.753 173.794 142.523 174.085 142.066C174.376 141.61 174.479 141.094 174.392 140.518C174.305 139.943 174.046 139.412 173.615 138.926L169.85 136.523L170.362 135.721L176.511 139.645L176.044 140.377L174.651 139.488C174.965 140.054 175.124 140.62 175.128 141.187C175.126 141.762 174.967 142.297 174.651 142.793C174.325 143.304 173.915 143.625 173.423 143.753C172.931 143.882 172.427 143.832 171.91 143.601C172.248 144.216 172.426 144.805 172.442 145.369C172.453 145.941 172.298 146.479 171.977 146.982C171.756 147.329 171.507 147.58 171.231 147.735C170.949 147.899 170.645 147.976 170.319 147.967C169.995 147.971 169.648 147.899 169.278 147.751C168.91 147.616 168.525 147.42 168.124 147.164L164.525 144.867Z" fill="black"/>
<path d="M155.568 155.125C155.942 154.759 156.357 154.489 156.814 154.315C157.278 154.148 157.747 154.074 158.222 154.092C158.704 154.117 159.171 154.227 159.625 154.423C160.071 154.625 160.478 154.913 160.843 155.286C161.32 155.773 161.648 156.327 161.827 156.95C161.999 157.578 162.005 158.205 161.847 158.831C161.696 159.463 161.37 160.024 160.87 160.514C160.357 161.017 159.789 161.331 159.168 161.457C158.539 161.589 157.916 161.56 157.298 161.369C156.686 161.185 156.144 160.853 155.674 160.373C155.622 160.319 155.57 160.266 155.517 160.213C155.472 160.166 155.439 160.126 155.419 160.093L159.879 155.722C159.48 155.382 159.05 155.15 158.589 155.026C158.128 154.916 157.673 154.911 157.223 155.013C156.773 155.127 156.381 155.347 156.048 155.674C155.708 156.007 155.473 156.407 155.343 156.875C155.206 157.348 155.215 157.784 155.369 158.182L154.623 158.6C154.488 158.249 154.432 157.865 154.456 157.45C154.48 157.034 154.586 156.623 154.775 156.216C154.964 155.821 155.228 155.458 155.568 155.125ZM160.379 156.193L156.53 159.965C156.929 160.319 157.359 160.551 157.819 160.662C158.274 160.778 158.723 160.776 159.166 160.655C159.609 160.547 160.001 160.327 160.341 159.994C160.681 159.661 160.909 159.274 161.026 158.833C161.149 158.398 161.157 157.946 161.049 157.476C160.942 157.02 160.718 156.592 160.379 156.193Z" fill="black"/>
<path d="M128.062 177.317L128.358 178.148L124.506 179.518L124.21 178.687L128.062 177.317Z" fill="black"/>
</svg>
